#define warning_width 15
#define warning_height 15
static unsigned char warning_bits[] = {
   0x80, 0x00, 0x40, 0x01, 0x40, 0x01, 0x20, 0x02, 0x20, 0x02, 0x90, 0x04,
   0x90, 0x04, 0x88, 0x08, 0x88, 0x08, 0x84, 0x10, 0x84, 0x10, 0x02, 0x20,
   0x82, 0x20, 0x01, 0x40, 0xff, 0x7f };
